<?xml version="1.0" encoding="utf-8"?>
<!-- Generator: Adobe Illustrator 18.0.0, SVG Export Plug-In . SVG Version: 6.00 Build 0)  -->
<!DOCTYPE svg PUBLIC "-//W3C//DTD SVG 1.1//EN" "http://www.w3.org/Graphics/SVG/1.1/DTD/svg11.dtd">



<svg
						xmlns="http://www.w3.org/2000/svg"
						xmlns:xlink="http://www.w3.org/1999/xlink"
						width="22px" height="20px">
						<path fill-rule="evenodd"  fill="rgb(255, 255, 255)"
						d="M19.583,11.544 L19.570,11.572 L19.545,11.588 C19.517,11.605 16.718,13.384 14.335,12.085 C14.329,12.082 14.021,11.911 13.614,11.660 C15.151,12.918 17.057,14.822 16.937,16.450 L16.937,18.824 L16.937,19.013 L16.783,18.906 C16.771,18.897 15.516,18.029 14.763,17.934 L14.741,17.931 L14.722,17.919 C14.692,17.899 11.940,16.054 10.904,13.479 C10.812,15.838 10.382,18.574 8.926,19.307 C8.856,19.345 7.207,20.215 6.388,19.906 L6.310,19.877 L6.326,19.794 C6.329,19.780 6.611,18.324 6.233,17.275 L6.220,17.242 L6.232,17.209 C6.242,17.180 7.197,14.478 8.239,12.334 C6.196,13.830 5.863,14.219 5.827,14.311 L5.823,14.317 L5.820,14.323 C5.810,14.341 5.580,14.730 4.921,14.883 C4.134,15.065 2.655,14.917 0.079,13.169 L0.001,13.117 L0.051,13.036 C0.160,12.855 2.771,8.633 5.740,9.032 C5.750,9.032 6.557,9.076 7.486,9.200 C3.755,7.128 3.963,2.546 3.966,2.497 L3.969,2.455 L4.002,2.427 C4.557,1.962 4.849,0.229 4.852,0.212 L4.886,0.006 L5.023,0.163 C5.685,0.925 6.741,1.319 6.752,1.322 L6.738,1.319 C9.490,1.904 10.545,4.205 10.942,6.184 C11.288,4.869 12.036,3.931 13.161,3.502 C13.776,3.206 15.388,2.287 15.464,1.603 L15.655,1.583 C15.724,1.796 17.217,6.572 15.341,8.328 C17.627,7.824 19.216,7.964 20.051,8.762 L20.043,8.755 C20.055,8.766 21.283,9.706 21.910,9.436 L21.998,9.611 C21.977,9.624 19.861,10.889 19.583,11.544 ZM12.278,10.177 C12.264,10.129 12.238,10.084 12.215,10.038 C12.202,10.010 12.194,9.980 12.177,9.953 C12.150,9.910 12.112,9.870 12.077,9.830 C12.056,9.804 12.040,9.777 12.016,9.754 C11.985,9.724 11.946,9.700 11.911,9.674 C11.874,9.645 11.840,9.613 11.798,9.588 C11.695,9.526 11.583,9.478 11.465,9.447 C11.348,9.415 11.224,9.398 11.099,9.397 L11.068,9.398 C10.951,9.400 10.839,9.415 10.732,9.443 C10.671,9.459 10.618,9.486 10.562,9.509 C10.518,9.527 10.471,9.539 10.430,9.561 C10.377,9.589 10.334,9.629 10.287,9.664 C10.251,9.691 10.210,9.712 10.178,9.743 C10.143,9.776 10.119,9.818 10.090,9.856 C10.056,9.898 10.017,9.936 9.990,9.983 C9.909,10.123 9.868,10.269 9.868,10.416 C9.868,10.593 9.925,10.765 10.038,10.926 L10.039,10.926 C10.183,11.135 10.418,11.275 10.681,11.356 C10.734,11.372 10.779,11.404 10.835,11.414 C10.925,11.429 11.009,11.436 11.091,11.436 C11.602,11.436 12.062,11.164 12.236,10.757 L12.237,10.755 C12.255,10.715 12.267,10.683 12.275,10.651 C12.300,10.563 12.313,10.488 12.313,10.416 C12.313,10.335 12.301,10.254 12.278,10.177 Z"/>
					</svg>
